<svg width="80" height="35" viewBox="0 0 80 35" fill="none" xmlns="http://www.w3.org/2000/svg">
<path d="M54.6309 32.3667C51.8791 35.8739 46.5633 35.8476 43.8484 32.3129L43.7809 32.2247C42.8586 31.0234 42.3622 29.5494 42.3698 28.0349C42.3774 26.5204 42.8885 25.0515 43.8228 23.8594L62.5221 0.00186157H80L54.6309 32.3667Z" fill="#F32424"/>
<path d="M53.9592 0.00125201L28.6263 32.3192C25.8633 35.8439 20.5181 35.8176 17.7901 32.2654L1.41912 10.9444C-2.01555 6.47096 1.17395 0 6.81376 0H27.6857L17.4417 13.0708C16.9677 13.6754 16.7083 14.4205 16.7045 15.1888C16.7006 15.957 16.9525 16.7047 17.4205 17.3141C17.7419 17.7327 18.1547 18.0723 18.6275 18.3068C19.1003 18.5414 19.6205 18.6647 20.1483 18.6674C20.676 18.67 21.1974 18.5519 21.6725 18.3222C22.1477 18.0924 22.564 17.757 22.8896 17.3416L36.4806 0.00313003L53.9592 0.00125201Z" fill="#F32424"/>
</svg>
